<svg xmlns="http://www.w3.org/2000/svg" viewBox="0 0 1200 498" role="img" aria-labelledby="title">
<title id="title">EM Music Produções</title>
<defs><linearGradient id="g" x1="0" y1="0" x2="1" y2="0"><stop offset="0" stop-color="#7429A8"/><stop offset=".52" stop-color="#A62999"/><stop offset="1" stop-color="#CB287D"/></linearGradient></defs>
<path fill="url(#g)" fill-rule="evenodd" d="M 917,409 911,411 906,418 906,436 907,437 921,437 924,438 927,441 929,447 929,478 928,479 921,478 912,470 911,458 909,455 906,456 906,468 908,473 914,480 921,483 933,483 934,482 934,446 933,442 927,434 922,432 912,432 911,431 911,419 914,415 917,414 926,415 929,420 929,425 931,426 934,425 934,419 932,414 929,411 923,409 Z M 876,409 866,410 859,417 858,422 858,481 859,483 872,483 875,482 884,474 887,465 887,458 884,455 882,457 882,465 880,471 875,476 871,478 865,479 863,477 863,427 864,426 885,426 887,424 887,420 884,413 Z M 864,418 869,414 876,414 881,418 881,420 880,421 865,421 Z M 820,409 815,411 810,417 810,475 812,479 818,483 829,483 832,482 836,478 838,473 838,420 837,416 834,412 827,409 Z M 821,414 827,414 833,420 833,473 829,478 824,479 817,477 815,474 815,418 818,415 Z M 780,409 773,409 766,412 762,420 762,481 764,483 768,483 771,487 771,492 769,494 770,497 772,497 775,494 776,487 774,483 785,477 789,471 791,461 790,456 787,455 784,470 778,476 774,478 768,478 767,477 767,421 768,418 773,414 780,414 785,418 786,425 790,425 789,415 785,411 Z M 739,409 736,412 736,478 735,479 725,476 720,471 718,466 718,410 713,411 713,466 716,474 723,481 728,483 741,483 742,481 742,412 Z M 666,409 664,411 664,481 665,483 684,483 687,482 691,478 693,470 693,429 692,428 692,423 690,419 683,412 675,409 Z M 670,414 675,414 680,416 686,422 688,428 688,471 687,475 685,477 679,479 670,479 669,478 669,415 Z M 626,409 619,412 615,420 615,472 617,478 621,482 635,483 638,482 642,478 644,470 644,422 642,415 638,411 633,409 Z M 626,414 635,415 638,418 639,422 639,470 638,475 635,478 630,479 624,478 621,475 620,472 620,421 621,418 Z M 586,409 571,409 569,410 569,482 570,483 574,482 574,415 575,414 585,414 591,418 592,420 591,428 587,432 583,432 580,429 578,429 577,433 593,448 595,449 597,448 596,443 589,437 595,431 597,427 597,419 592,412 Z M 539,409 524,409 523,410 523,483 527,483 527,416 529,414 539,414 545,419 546,422 545,427 541,431 536,432 534,434 535,437 540,437 546,434 551,425 551,421 549,416 544,411 Z M 807,404 811,405 814,402 820,402 827,406 832,406 835,405 838,401 837,399 835,399 833,401 827,401 822,398 814,397 811,398 807,402 Z M 0,269 1,279 6,289 15,297 27,301 38,300 48,296 75,290 98,288 99,287 108,287 109,286 119,286 120,285 143,284 147,300 155,321 166,341 181,361 198,378 220,394 241,405 268,414 284,417 292,417 293,418 332,418 333,417 342,417 361,413 376,408 397,398 421,383 435,371 442,369 449,370 473,382 484,386 494,388 513,387 532,380 550,366 565,345 576,322 585,295 595,255 598,235 601,224 603,207 604,206 604,200 606,193 606,187 607,186 610,159 615,133 615,127 618,116 632,163 633,170 645,206 645,209 647,212 651,227 666,266 678,291 687,306 696,316 707,323 719,326 732,325 747,318 760,306 779,276 808,214 810,216 817,239 833,278 849,310 862,331 869,340 880,351 897,363 917,372 953,382 974,384 975,385 1001,386 1002,387 1095,387 1096,386 1163,383 1164,382 1174,382 1187,376 1193,370 1197,362 1199,352 1197,342 1192,333 1182,325 1172,322 1132,324 1131,325 1114,325 1113,326 1095,326 1094,327 1054,327 1053,328 1045,328 1044,327 1004,327 1003,326 988,326 987,325 978,325 977,324 959,322 938,316 927,311 921,307 910,295 902,282 887,252 872,215 858,169 857,162 848,138 842,129 832,120 822,116 810,115 797,119 787,126 781,133 768,156 768,158 756,182 756,184 739,219 734,232 725,249 714,225 701,187 700,181 698,178 698,175 695,168 695,165 677,105 668,67 656,31 649,19 639,8 633,4 621,0 605,1 596,5 589,10 578,24 572,37 568,50 563,75 563,80 556,117 556,123 553,136 553,142 551,149 550,162 548,169 544,202 532,262 520,301 512,317 508,323 502,328 499,328 471,314 455,308 440,305 432,305 418,308 404,315 375,335 351,346 324,352 295,352 271,346 253,337 240,327 224,309 212,287 213,284 445,284 456,281 461,278 471,267 474,259 474,253 475,252 474,231 473,230 471,212 468,200 459,176 442,148 430,134 417,122 394,106 366,93 345,87 329,85 328,84 299,83 298,84 287,84 286,85 270,87 247,94 224,105 210,114 195,126 183,138 171,153 162,167 153,185 146,205 142,224 80,229 79,230 60,232 55,234 50,234 21,242 12,247 4,256 Z M 212,215 218,202 229,186 243,172 254,164 272,155 286,151 297,150 298,149 317,149 318,150 330,151 347,156 358,161 372,170 391,190 401,208 404,217 403,218 213,218 Z"/>
</svg>
